<svg width="30" height="30" viewBox="0 0 30 30" fill="none" xmlns="http://www.w3.org/2000/svg">
<g clip-path="url(#clip0_943_1064)">
<path d="M14.56 29.12C22.6013 29.12 29.12 22.6013 29.12 14.56C29.12 6.51873 22.6013 0 14.56 0C6.51873 0 0 6.51873 0 14.56C0 22.6013 6.51873 29.12 14.56 29.12Z" fill="white"/>
<path d="M5.94127 6.35889L12.5816 15.7934L5.87939 23.6389H7.67939L13.3944 16.9479L18.1025 23.6389H23.8175L16.5275 13.2804L22.4394 6.35889H20.6394L15.7147 12.1259L11.6563 6.35889H5.94127ZM8.69752 7.79889H10.9039L15.9826 14.9989L21.0613 22.1989H18.8549L8.69752 7.79889Z" fill="#282828" stroke="black" stroke-width="0.1"/>
</g>
<defs>
<clipPath id="clip0_943_1064">
<rect width="29.12" height="29.12" fill="white"/>
</clipPath>
</defs>
</svg>
